<svg width="102" height="151" viewBox="0 0 102 151" fill="none" xmlns="http://www.w3.org/2000/svg">
<path d="M51.4405 150.548C28.5844 150.548 10.0557 148.63 10.0557 146.265C10.0557 143.899 28.5844 141.982 51.4405 141.982C74.2971 141.982 92.8258 143.899 92.8258 146.265C92.8258 148.63 74.2971 150.548 51.4405 150.548Z" fill="#6E65D4"/>
<path d="M50.7491 2.85226C45.197 2.85226 40.6793 7.36693 40.6793 12.9161C40.6793 18.4658 45.197 22.9809 50.7491 22.9809C56.3018 22.9809 60.819 18.4658 60.819 12.9161C60.819 7.36693 56.3018 2.85226 50.7491 2.85226ZM50.7491 24.7093C44.2429 24.7093 38.95 19.4189 38.95 12.9161C38.95 6.41384 44.2429 1.12341 50.7491 1.12341C57.2549 1.12341 62.5483 6.41384 62.5483 12.9161C62.5483 19.4189 57.2549 24.7093 50.7491 24.7093Z" fill="white"/>
<path d="M50.7492 3.97568C45.8164 3.97568 41.8032 7.98634 41.8032 12.9161C41.8032 17.8464 45.8164 21.857 50.7492 21.857C55.682 21.857 59.6951 17.8464 59.6951 12.9161C59.6951 7.98634 55.682 3.97568 50.7492 3.97568ZM50.7492 25.8332C43.6235 25.8332 37.8265 20.0383 37.8265 12.9161C37.8265 5.79444 43.6235 -1.90735e-06 50.7492 -1.90735e-06C57.8749 -1.90735e-06 63.6718 5.79444 63.6718 12.9161C63.6718 20.0383 57.8749 25.8332 50.7492 25.8332Z" fill="#000072"/>
<path d="M53.6928 17.7724H47.7425C46.8459 17.7724 46.1196 17.0461 46.1196 16.1495V13.6019C46.1196 12.7058 46.8459 11.979 47.7425 11.979H53.6928C54.5889 11.979 55.3157 12.7058 55.3157 13.6019V16.1495C55.3157 17.0461 54.5889 17.7724 53.6928 17.7724Z" fill="#F7C714"/>
<path d="M48.1177 16.3993H47.7421C47.6047 16.3993 47.4928 16.2874 47.4928 16.1495V13.6019C47.4928 13.4646 47.6047 13.3522 47.7421 13.3522H53.5145C53.4271 13.5265 53.3042 13.7413 53.1369 13.9761H49.0208C48.5223 13.9761 48.1177 14.3802 48.1177 14.8792V16.3993Z" fill="#FCE9A1"/>
<path d="M47.742 13.3522C47.6047 13.3522 47.4928 13.4646 47.4928 13.602V16.1495C47.4928 16.2874 47.6047 16.3993 47.742 16.3993H53.6928C53.8302 16.3993 53.9426 16.2874 53.9426 16.1495V13.602C53.9426 13.4646 53.8302 13.3522 53.6928 13.3522H47.742ZM53.6928 19.1461H47.742C46.0901 19.1461 44.7459 17.8019 44.7459 16.1495V13.602C44.7459 11.9501 46.0901 10.6059 47.742 10.6059H53.6928C55.3453 10.6059 56.6895 11.9501 56.6895 13.602V16.1495C56.6895 17.8019 55.3453 19.1461 53.6928 19.1461Z" fill="#000072"/>
<path d="M47.6241 27.7174H53.6993V17.7726H47.6241V27.7174Z" fill="#F7C714"/>
<path d="M48.9978 26.3442H52.3261V19.1461H48.9978V26.3442ZM53.6993 29.0906H47.6242C46.8659 29.0906 46.251 28.4757 46.251 27.7174V17.7725C46.251 17.0142 46.8659 16.3993 47.6242 16.3993H53.6993C54.4581 16.3993 55.073 17.0142 55.073 17.7725V27.7174C55.073 28.4757 54.4581 29.0906 53.6993 29.0906Z" fill="#000072"/>
<path d="M48.9978 23.9775V19.1462H52.3261V23.972C51.8021 23.956 51.2766 23.9475 50.7491 23.9475C50.1632 23.9475 49.5787 23.9575 48.9978 23.9775Z" fill="#AC8B30"/>
<path d="M47.6241 24.0429V17.7724H53.6993V24.0324C53.2432 24.006 52.7857 23.986 52.3261 23.972V19.1461H48.9978V23.9775C48.5383 23.993 48.0802 24.015 47.6241 24.0429Z" fill="#000072"/>
<path d="M84.9723 32.1227L91.4052 38.4601C92.0386 39.084 93.0576 39.0765 93.682 38.4436L96.8425 35.2392C97.4674 34.6058 97.4599 33.5853 96.826 32.9609L90.3936 26.6235C89.7602 25.9996 88.7412 26.0071 88.1168 26.64L84.9563 29.8444C84.3314 30.4783 84.3389 31.4983 84.9723 32.1227Z" fill="#F7C714"/>
<path d="M95.0387 34.3975C95.0227 34.3975 95.0062 34.3975 94.9898 34.397L90.3942 29.8694C90.0805 29.5602 89.6719 29.4058 89.2633 29.4058C88.8472 29.4058 88.4316 29.5662 88.1164 29.8858L86.6812 31.341C86.4854 31.2001 86.2876 31.0522 86.0888 30.8979L89.2173 27.7259C89.2303 27.7129 89.2468 27.7069 89.2633 27.7069C89.2797 27.7069 89.2962 27.7129 89.3082 27.7249L95.741 34.0628C95.7465 34.0683 95.76 34.0813 95.76 34.1078C95.76 34.1348 95.7475 34.1478 95.7415 34.1533L95.5138 34.3845C95.3729 34.3925 95.2146 34.3975 95.0387 34.3975Z" fill="#FCE9A1"/>
<path d="M89.2632 27.7069C89.2467 27.7069 89.2302 27.7129 89.2173 27.7259L86.0573 30.9303C86.0513 30.9358 86.0383 30.9493 86.0388 30.9758C86.0388 31.0023 86.0523 31.0153 86.0578 31.0213L92.4906 37.3587C92.5156 37.3832 92.5561 37.3832 92.5815 37.3577L95.7415 34.1533C95.7475 34.1478 95.76 34.1348 95.76 34.1078C95.76 34.0813 95.7465 34.0683 95.741 34.0628L89.3082 27.7249C89.2962 27.7129 89.2797 27.7069 89.2632 27.7069ZM92.5351 40.4677C91.7343 40.4677 90.9336 40.166 90.3202 39.5616L83.8874 33.2242C83.2864 32.6322 82.9523 31.842 82.9463 30.9983C82.9398 30.1546 83.263 29.3594 83.8549 28.7589L87.0159 25.554C88.2372 24.3157 90.2393 24.3012 91.4786 25.522L97.9114 31.8595C98.5123 32.4514 98.8465 33.2421 98.8525 34.0853C98.8585 34.929 98.5358 35.7243 97.9434 36.3247L94.7829 39.5296C94.1665 40.1545 93.3508 40.4677 92.5351 40.4677Z" fill="#000072"/>
<path d="M79.0795 40.2809L83.4063 44.5438L90.3912 37.4611L86.0648 33.1986L79.0795 40.2809Z" fill="#F7C714"/>
<path d="M81.2669 40.2654L83.3904 42.3574L88.2038 37.477L86.0803 35.3846L81.2669 40.2654ZM83.4064 46.0898C83.0142 46.0898 82.6226 45.9419 82.3214 45.6452L77.9946 41.3823C77.7023 41.0946 77.5365 40.7025 77.5335 40.2923C77.5305 39.8817 77.6908 39.4876 77.9786 39.1954L84.9639 32.1127C85.5638 31.5048 86.5418 31.4983 87.1498 32.0972L91.4766 36.3596C91.7688 36.6473 91.9347 37.04 91.9377 37.4501C91.9407 37.8602 91.7803 38.2548 91.4921 38.547L84.5073 45.6292C84.2046 45.9359 83.8055 46.0898 83.4064 46.0898Z" fill="#000072"/>
<path d="M86.7486 38.9526C86.0478 38.2468 85.3275 37.563 84.5867 36.8991L86.0803 35.3846L88.2037 37.4771L86.7486 38.9526Z" fill="#AC8B30"/>
<path d="M87.8222 40.0666C87.47 39.6899 87.1119 39.3183 86.7487 38.9527L88.2038 37.4771L86.0804 35.3846L84.5868 36.8991C84.2027 36.5554 83.8115 36.2153 83.4174 35.8831L86.0649 33.1987L90.3912 37.4611L87.8222 40.0666Z" fill="#000072"/>
<path d="M15.9311 32.4444L9.49823 38.7818C8.86484 39.4057 7.84582 39.3982 7.22142 38.7653L4.06095 35.5604C3.43605 34.927 3.44355 33.907 4.07744 33.2826L10.5098 26.9452C11.1432 26.3213 12.1627 26.3283 12.7866 26.9617L15.947 30.1661C16.5719 30.7995 16.5649 31.8195 15.9311 32.4444Z" fill="#F7C714"/>
<path d="M8.16749 37.5225L5.16185 34.4749C5.15636 34.4689 5.14337 34.456 5.14337 34.4295C5.14337 34.403 5.15686 34.3895 5.16236 34.384L11.5952 28.0466C11.6077 28.0346 11.6237 28.0281 11.6402 28.0281C11.6567 28.0281 11.6732 28.0346 11.6856 28.0471L11.9479 28.3129C11.9609 28.4267 11.9729 28.5551 11.9824 28.697L7.07403 33.5328C6.44014 34.1567 6.43264 35.1763 7.05755 35.8097L8.46721 37.2393C8.3698 37.3342 8.27039 37.4281 8.16749 37.5225Z" fill="#FCE9A1"/>
<path d="M15.9311 32.4439H15.9336H15.9311ZM11.6402 28.0281C11.6237 28.0281 11.6077 28.0346 11.5952 28.0466L5.16238 34.384C5.15689 34.3895 5.1434 34.403 5.1434 34.4295C5.1434 34.4559 5.15639 34.4689 5.16188 34.4749L8.32235 37.6793C8.34733 37.7048 8.38829 37.7048 8.41327 37.6799L14.8456 31.3424V31.3429C14.8516 31.3369 14.8646 31.3239 14.8651 31.2975C14.8651 31.271 14.8521 31.2575 14.8461 31.252L11.6856 28.0471C11.6731 28.0346 11.6567 28.0281 11.6402 28.0281ZM8.36831 40.7894C7.55209 40.7894 6.73737 40.4762 6.12046 39.8513L2.95999 36.6463C2.36756 36.0459 2.04487 35.2507 2.05086 34.407C2.05686 33.5638 2.39104 32.7731 2.99196 32.1811L9.4248 25.8437C10.6636 24.6229 12.6662 24.6374 13.888 25.8757L17.0485 29.0801C17.6404 29.681 17.9631 30.4763 17.9576 31.3195C17.9511 32.1631 17.6169 32.9534 17.0165 33.5453H17.016L10.5832 39.8832C9.96977 40.4877 9.16854 40.7894 8.36831 40.7894Z" fill="#000072"/>
<path d="M21.8239 40.6026L17.4971 44.865L10.5123 37.7828L14.8386 33.5199L21.8239 40.6026Z" fill="#F7C714"/>
<path d="M12.6996 37.7983L17.5125 42.6791L19.6365 40.5871L14.8231 35.7063L12.6996 37.7983ZM17.497 46.4115C17.0979 46.4115 16.6988 46.2576 16.3961 45.9509L9.41125 38.8682C9.12303 38.5765 8.96268 38.1819 8.96568 37.7713C8.96868 37.3612 9.13452 36.969 9.42674 36.6813L13.7536 32.4184C14.3615 31.82 15.3401 31.8265 15.9395 32.4344L22.9248 39.5166C23.2125 39.8088 23.3729 40.2034 23.3699 40.6136C23.3669 41.0242 23.2011 41.4163 22.9088 41.704L18.5825 45.9669C18.2813 46.2631 17.8891 46.4115 17.497 46.4115Z" fill="#000072"/>
<path d="M14.2952 39.4162L12.6997 37.7982L14.8232 35.7063L16.4301 37.3362C15.6978 38.009 14.987 38.7019 14.2952 39.4162Z" fill="#AC8B30"/>
<path d="M13.2357 40.5441L10.5123 37.7828L14.8386 33.5198L17.586 36.3057C17.1959 36.6429 16.8097 36.987 16.4301 37.3362L14.8231 35.7062L12.6997 37.7982L14.2951 39.4162C13.9365 39.7863 13.5828 40.163 13.2357 40.5441Z" fill="#000072"/>
<path d="M99.9521 74.6709C99.9521 101.831 77.9232 123.848 50.7492 123.848C23.5753 123.848 1.54639 101.831 1.54639 74.6709C1.54639 47.5115 23.5753 25.4941 50.7492 25.4941C77.9232 25.4941 99.9521 47.5115 99.9521 74.6709Z" fill="#F7C714"/>
<path d="M49.9999 120.353C34.8299 120.353 21.2644 113.489 12.2401 102.701C7.17544 95.7697 3.93655 87.4242 3.23572 78.3804C5.21882 81.3091 7.67246 84.2318 10.5602 86.9706C15.8336 104.15 31.8558 116.676 50.7492 116.676C69.4887 116.676 85.4025 104.355 90.8068 87.3917C91.579 85.6754 92.2369 83.938 92.7764 82.1892C95.3235 79.3245 97.1337 76.4347 98.3945 73.6324C98.402 73.9771 98.4055 74.3247 98.4055 74.6709C98.4055 77.9697 98.0678 81.1932 97.4259 84.3047C91.6795 105.09 72.6242 120.353 49.9999 120.353Z" fill="#AC8B30"/>
<path d="M11.2671 52.4787C10.2196 52.4787 9.51025 52.0816 9.20953 51.3423C13.1957 44.2815 18.9332 38.3307 25.8266 34.0863C26.0034 34.0663 26.1768 34.0563 26.3451 34.0563C28.2063 34.0563 29.4631 35.2677 28.7803 37.6814C25.5943 39.0995 22.6057 41.0342 19.8943 43.6516C17.09 46.3595 14.7762 49.2308 12.934 52.2179C12.3101 52.3938 11.7526 52.4792 11.2671 52.4787Z" fill="#FBE07E"/>
<path d="M8.24292 62.4516C8.08807 62.4516 7.93521 62.4306 7.78436 62.3877C6.4916 62.014 5.90317 60.1204 6.47012 58.1572C6.97164 56.4229 8.20745 55.2151 9.38033 55.2151C9.53518 55.2151 9.68803 55.236 9.83889 55.2795C10.2535 55.3989 10.5962 55.6756 10.8509 56.0603C9.87086 58.1438 9.10309 60.2722 8.54513 62.4256C8.44422 62.4431 8.34332 62.4516 8.24292 62.4516Z" fill="#FBE07E"/>
<path d="M50.7492 27.0401C24.4714 27.0401 3.09289 48.4071 3.09289 74.6709C3.09289 100.935 24.4714 122.302 50.7492 122.302C77.027 122.302 98.4055 100.935 98.4055 74.6709C98.4055 48.4071 77.027 27.0401 50.7492 27.0401ZM50.7492 125.394C22.766 125.394 0 102.64 0 74.6709C0 46.7022 22.766 23.9475 50.7492 23.9475C78.7324 23.9475 101.499 46.7022 101.499 74.6709C101.499 102.64 78.7324 125.394 50.7492 125.394Z" fill="#000072"/>
<path d="M91.9217 83.1203C92.4822 80.3894 92.7759 77.5646 92.7759 74.6709C92.7759 57.1752 82.0192 42.1436 66.7683 35.8361C73.5763 37.539 79.8628 40.6505 84.8195 45.9794C94.4203 56.3015 96.6802 69.5438 92.7764 82.1892C92.5002 82.5004 92.2159 82.8101 91.9217 83.1203Z" fill="#FCE9A1"/>
<path d="M90.8068 87.3917C91.2503 85.9986 91.624 84.5714 91.9217 83.1203C92.2159 82.8101 92.5001 82.5004 92.7764 82.1892C92.2369 83.938 91.579 85.6754 90.8068 87.3917Z" fill="#DED1AC"/>
<path d="M10.0896 85.3182C7.1854 77.8039 6.59397 69.9504 8.5451 62.4256C9.62206 62.2408 10.6945 61.0949 11.1531 59.5094C11.5382 58.1762 11.3904 56.875 10.8509 56.0602C11.4618 54.7615 12.1556 53.4797 12.9339 52.2179C13.881 51.9512 14.9789 51.4756 16.2048 50.7713C11.4888 57.5598 8.72243 65.7984 8.72243 74.6709C8.72243 78.3479 9.19747 81.917 10.0896 85.3182ZM28.1198 39.2883C28.426 38.7039 28.6428 38.1679 28.7802 37.6814C31.0705 36.6623 33.4617 35.9101 35.9258 35.3631C33.1755 36.4026 30.5615 37.7228 28.1198 39.2883Z" fill="#FCE9A1"/>
<path d="M12.9339 52.2179C14.7761 49.2308 17.0899 46.3596 19.8942 43.6517C22.6056 41.0342 25.5943 39.0995 28.7802 37.6814C28.6428 38.1679 28.426 38.7039 28.1198 39.2883C23.4313 42.2945 19.3772 46.2042 16.2048 50.7713C14.9789 51.4756 13.881 51.9512 12.9339 52.2179Z" fill="#FDF3CB"/>
<path d="M8.5451 62.4257C9.10307 60.2722 9.87085 58.1438 10.8509 56.0603C11.3904 56.875 11.5383 58.1762 11.1531 59.5095C10.6946 61.0949 9.62208 62.2408 8.5451 62.4257Z" fill="#FDF3CB"/>
<path d="M91.4027 74.6709C91.4027 97.1114 73.2016 115.303 50.7492 115.303C28.2967 115.303 10.0956 97.1114 10.0956 74.6709C10.0956 52.2304 28.2967 34.0389 50.7492 34.0389C73.2016 34.0389 91.4027 52.2304 91.4027 74.6709Z" fill="#F7C714"/>
<path d="M50.7491 35.4121C29.0899 35.4121 11.4688 53.0237 11.4688 74.6709C11.4688 96.3182 29.0899 113.93 50.7491 113.93C72.4084 113.93 90.0295 96.3182 90.0295 74.6709C90.0295 53.0237 72.4084 35.4121 50.7491 35.4121ZM50.7491 116.676C27.5753 116.676 8.72241 97.8327 8.72241 74.6709C8.72241 51.5091 27.5753 32.6657 50.7491 32.6657C73.9229 32.6657 92.7759 51.5091 92.7759 74.6709C92.7759 97.8327 73.9229 116.676 50.7491 116.676Z" fill="#000072"/>
<path d="M85.2171 74.6709C85.2171 93.6971 69.7854 109.121 50.7491 109.121C31.7129 109.121 16.2812 93.6971 16.2812 74.6709C16.2812 55.6447 31.7129 40.221 50.7491 40.221C69.7854 40.221 85.2171 55.6447 85.2171 74.6709Z" fill="white"/>
<path d="M50.7491 40.3458C31.8123 40.3458 16.4061 55.7441 16.4061 74.6709C16.4061 93.5978 31.8123 108.996 50.7491 108.996C69.686 108.996 85.0922 93.5978 85.0922 74.6709C85.0922 55.7441 69.686 40.3458 50.7491 40.3458ZM50.7491 109.246C31.6744 109.246 16.1563 93.7357 16.1563 74.6709C16.1563 55.6062 31.6744 40.0961 50.7491 40.0961C69.8239 40.0961 85.342 55.6062 85.342 74.6709C85.342 93.7357 69.8239 109.246 50.7491 109.246Z" fill="#000072"/>
<path d="M85.2171 74.6709C85.2171 93.6971 69.7854 109.121 50.7491 109.121C31.7129 109.121 16.2812 93.6971 16.2812 74.6709C16.2812 55.6447 31.7129 40.221 50.7491 40.221C69.7854 40.221 85.2171 55.6447 85.2171 74.6709Z" fill="white"/>
<path d="M50.7491 40.3458C31.8123 40.3458 16.4061 55.7441 16.4061 74.6709C16.4061 93.5978 31.8123 108.996 50.7491 108.996C69.686 108.996 85.0922 93.5978 85.0922 74.6709C85.0922 55.7441 69.686 40.3458 50.7491 40.3458ZM50.7491 109.246C31.6744 109.246 16.1563 93.7357 16.1563 74.6709C16.1563 55.6062 31.6744 40.0961 50.7491 40.0961C69.8239 40.0961 85.342 55.6062 85.342 74.6709C85.342 93.7357 69.8239 109.246 50.7491 109.246Z" fill="#000072"/>
<path d="M50.7492 109.296C31.646 109.296 16.1049 93.7636 16.1049 74.6709C16.1049 55.5782 31.646 40.0456 50.7492 40.0456C69.8524 40.0456 85.3935 55.5782 85.3935 74.6709C85.3935 77.2055 85.1192 79.6786 84.5997 82.0598L84.5498 82.0473C85.0688 79.6696 85.342 77.202 85.342 74.6709C85.342 55.6062 69.8239 40.0961 50.7492 40.0961C31.6745 40.0961 16.1564 55.6062 16.1564 74.6709C16.1564 93.7356 31.6745 109.246 50.7492 109.246C66.573 109.246 79.9502 98.5705 84.0498 84.0474L84.0992 84.0599C79.9952 98.6054 66.598 109.296 50.7492 109.296Z" fill="#AC8B30"/>
<path d="M50.7492 108.996C31.8123 108.996 16.4061 93.5978 16.4061 74.6709C16.4061 69.7821 17.4336 65.1291 19.2849 60.9156L21.3494 62.9507C19.9532 66.6476 19.1865 70.6133 19.1865 74.6709C19.1865 92.0932 33.3179 107.517 50.7492 107.517C55.3188 107.517 59.6611 106.457 63.5824 104.58L64.9461 105.924C60.6167 107.897 55.8093 108.996 50.7492 108.996ZM72.7511 101.008L71.1536 99.4941C74.5184 96.466 77.2772 92.7351 79.2104 88.5746L81.3169 90.3089C79.1999 94.4255 76.2742 98.063 72.7511 101.008ZM84.307 81.9869L81.6231 81.3165C82.0741 79.1546 82.3119 76.9297 82.3119 74.6709C82.3119 57.2486 68.1805 41.5187 50.7492 41.5187C45.7924 41.5187 41.1034 42.79 36.9294 45.0114L35.5637 43.8869C40.1449 41.6206 45.3004 40.3458 50.7492 40.3458C69.686 40.3458 85.0922 55.7441 85.0922 74.6709C85.0922 77.181 84.8215 79.6282 84.307 81.9869ZM25.0473 55.8095L23.2606 54.1161C25.0663 51.7104 27.1803 49.548 29.5435 47.6888L31.119 48.986C28.8102 50.9641 26.7642 53.2674 25.0473 55.8095Z" fill="#B2B2D4"/>
<path d="M50.7491 109.246C31.6744 109.246 16.1563 93.7357 16.1563 74.6709C16.1563 55.6062 31.6744 40.0961 50.7491 40.0961C69.8239 40.0961 85.342 55.6062 85.342 74.6709C85.342 77.202 85.0687 79.6696 84.5497 82.0474L84.307 81.9869C84.8215 79.6282 85.0922 77.181 85.0922 74.6709C85.0922 55.7441 69.686 40.3458 50.7491 40.3458C45.3004 40.3458 40.1448 41.6206 35.5637 43.8869L35.4703 43.81C33.3274 44.873 31.3023 46.1373 29.4406 47.6039L29.5435 47.6888C27.1802 49.548 25.0663 51.7104 23.2605 54.1161L23.1591 54.0202C21.5881 56.1137 20.2534 58.394 19.1864 60.8182L19.2848 60.9156C17.4336 65.1291 16.4061 69.7821 16.4061 74.6709C16.4061 93.5978 31.8123 108.996 50.7491 108.996C55.8093 108.996 60.6167 107.897 64.946 105.924L65.0414 106.018C67.8687 104.727 70.4947 103.071 72.85 101.102L72.751 101.008C76.2742 98.063 79.1999 94.4255 81.3168 90.3089L81.4162 90.3909C82.4538 88.3733 83.2959 86.2393 83.9233 84.016L84.0497 84.0474C79.9501 98.5705 66.573 109.246 50.7491 109.246Z" fill="#000072"/>
<path d="M50.7492 113.93C41.511 113.93 33.0087 110.726 26.2936 105.373C17.9496 97.6854 12.6432 86.4012 12.6432 74.6709C12.6432 62.9392 17.9496 51.6555 26.2951 43.9684C33.0097 38.6155 41.5125 35.4121 50.7492 35.4121C59.9858 35.4121 68.4892 38.616 75.2037 43.9689C83.5492 51.6555 88.8552 62.9392 88.8552 74.6709C88.8552 86.4012 83.5487 97.6854 75.2047 105.372C68.4902 110.726 59.9873 113.93 50.7492 113.93ZM50.7492 37.7983C30.4072 37.7983 13.8575 54.3394 13.8575 74.6709C13.8575 95.0024 30.4072 111.544 50.7492 111.544C71.0912 111.544 87.6408 95.0024 87.6408 74.6709C87.6408 54.3394 71.0912 37.7983 50.7492 37.7983Z" fill="#AC8B30"/>
<path d="M50.7491 115.303C41.4406 115.303 32.9117 111.469 26.2936 105.372C33.0086 110.726 41.511 113.93 50.7491 113.93C59.9873 113.93 68.4901 110.726 75.2047 105.372C68.5865 111.469 60.0577 115.303 50.7491 115.303ZM75.2037 43.9688C68.4891 38.616 59.9858 35.4121 50.7491 35.4121C41.5125 35.4121 33.0096 38.6155 26.2951 43.9683C32.9127 37.8732 41.4416 34.0394 50.7491 34.0394C60.0567 34.0394 68.586 37.8732 75.2037 43.9688Z" fill="#000072"/>
<path d="M50.7492 40.0456C31.646 40.0456 16.1049 55.5782 16.1049 74.6709C16.1049 93.7636 31.646 109.296 50.7492 109.296C69.8524 109.296 85.3934 93.7636 85.3934 74.6709C85.3934 55.5782 69.8524 40.0456 50.7492 40.0456ZM50.7492 111.544C30.4072 111.544 13.8575 95.0024 13.8575 74.6709C13.8575 54.3394 30.4072 37.7983 50.7492 37.7983C71.0912 37.7983 87.6408 54.3394 87.6408 74.6709C87.6408 95.0024 71.0912 111.544 50.7492 111.544Z" fill="#000072"/>
<path d="M53.9736 77.8938C52.1928 79.6736 49.3055 79.6736 47.5247 77.8938C45.744 76.114 45.744 73.2283 47.5247 71.448C49.3055 69.6682 52.1928 69.6682 53.9736 71.448C55.7543 73.2283 55.7543 76.114 53.9736 77.8938Z" fill="#C9CCD2"/>
<path d="M50.7491 70.2401C49.6132 70.2401 48.4778 70.6722 47.6132 71.5364C46.7755 72.3736 46.3139 73.487 46.3139 74.6709C46.3139 75.8548 46.7755 76.9682 47.6132 77.8054C49.3425 79.5338 52.1558 79.5338 53.8851 77.8054C54.7228 76.9682 55.1844 75.8548 55.1844 74.6709C55.1844 73.487 54.7228 72.3736 53.8851 71.5364C53.0205 70.6722 51.885 70.2401 50.7491 70.2401ZM50.7491 79.3514C49.5493 79.3514 48.35 78.8949 47.4363 77.9817C46.5517 77.0976 46.0641 75.9217 46.0641 74.6709C46.0641 73.4201 46.5517 72.2442 47.4363 71.3601C49.2631 69.5338 52.2352 69.5338 54.0619 71.3601C54.9466 72.2442 55.4341 73.4201 55.4341 74.6709C55.4341 75.9217 54.9466 77.0976 54.0619 77.9817C53.1483 78.8949 51.949 79.3514 50.7491 79.3514Z" fill="#000072"/>
<path d="M50.7492 71.1458C49.8451 71.1458 48.9415 71.4895 48.2536 72.1773C47.5868 72.8437 47.2201 73.7288 47.2201 74.6709C47.2201 75.613 47.5868 76.4987 48.2536 77.1645C49.6298 78.5402 51.8687 78.5402 53.2448 77.1645C53.9117 76.4987 54.2784 75.613 54.2784 74.6709C54.2784 73.7288 53.9117 72.8437 53.2448 72.1773C52.557 71.4895 51.6534 71.1458 50.7492 71.1458ZM50.7492 80.257C49.3176 80.257 47.886 79.7121 46.796 78.6231C45.74 77.5671 45.1586 76.164 45.1586 74.6709C45.1586 73.1783 45.74 71.7747 46.796 70.7192C48.9759 68.5403 52.5225 68.5403 54.7025 70.7192C55.7585 71.7747 56.3399 73.1783 56.3399 74.6709C56.3399 76.164 55.7585 77.5671 54.7025 78.6231C53.6125 79.7121 52.1809 80.257 50.7492 80.257Z" fill="#000072"/>
<path d="M38.5254 60.3361L45.2824 67.0777L48.6767 70.4329L52.0475 73.8117H49.892L66.588 57.1637C67.1735 56.5802 68.1205 56.5812 68.7045 57.1662C69.2879 57.7506 69.2894 58.6952 68.7045 59.2786L52.0475 75.9656C51.4535 76.5606 50.4899 76.5616 49.8945 75.9681L49.892 75.9656L46.5118 72.5969L43.1545 69.2046L36.4094 62.4511C35.8255 61.8662 35.8265 60.9196 36.4114 60.3361C36.9959 59.7527 37.9415 59.7512 38.5254 60.3361Z" fill="#000072"/>
<path d="M70.751 55.7106C70.4873 55.7106 70.223 55.6097 70.0222 55.4084C69.6196 55.0058 69.6196 54.3534 70.0222 53.9508L75.3122 48.6633C75.7148 48.2607 76.3677 48.2612 76.7703 48.6638C77.1724 49.0665 77.1724 49.7193 76.7698 50.1214L71.4798 55.4089C71.2785 55.6102 71.0148 55.7106 70.751 55.7106Z" fill="#000072"/>
<path d="M77.9436 67.9234C77.495 67.9234 77.0824 67.6282 76.9531 67.1756C76.7967 66.6281 77.1129 66.0577 77.6609 65.9008L84.853 63.8433C85.3995 63.6865 85.9709 64.0037 86.1278 64.5511C86.2841 65.0986 85.9674 65.6691 85.4199 65.8259L78.2273 67.8834C78.1329 67.9104 78.0375 67.9234 77.9436 67.9234Z" fill="#000072"/>
<path d="M85.4519 84.3661C85.369 84.3661 85.2851 84.3561 85.2012 84.3352L77.9431 82.5229C77.3907 82.385 77.0545 81.8255 77.1924 81.2731C77.3302 80.7206 77.8892 80.3844 78.4422 80.5223L85.7007 82.3346C86.2532 82.4729 86.5893 83.0324 86.4515 83.5849C86.3341 84.0529 85.9135 84.3661 85.4519 84.3661Z" fill="#000072"/>
<path d="M76.041 100.98C75.7772 100.98 75.514 100.88 75.3122 100.679L70.0222 95.3916C69.6196 94.9889 69.6196 94.3361 70.0222 93.9335C70.4244 93.5308 71.0767 93.5308 71.4798 93.933L76.7698 99.2204C77.1724 99.623 77.1724 100.275 76.7703 100.679C76.569 100.88 76.3052 100.98 76.041 100.98Z" fill="#000072"/>
<path d="M59.758 110.299C59.2999 110.299 58.8818 109.991 58.7614 109.527L56.8767 102.291C56.7334 101.74 57.0636 101.177 57.6145 101.034C58.1645 100.89 58.7285 101.22 58.8718 101.771L60.7565 109.007C60.8999 109.558 60.5697 110.121 60.0187 110.265C59.9313 110.288 59.8444 110.299 59.758 110.299Z" fill="#000072"/>
<path d="M41.1689 110.145C41.0775 110.145 40.9846 110.133 40.8922 110.107C40.3437 109.955 40.023 109.386 40.1753 108.838L42.1794 101.634C42.3318 101.085 42.9012 100.764 43.4487 100.917C43.9972 101.069 44.3179 101.638 44.1655 102.186L42.162 109.39C42.0351 109.846 41.6205 110.145 41.1689 110.145Z" fill="#000072"/>
<path d="M25.4574 100.98C25.1936 100.98 24.9299 100.88 24.7286 100.679C24.326 100.275 24.326 99.623 24.7286 99.2204L30.019 93.933C30.4211 93.5308 31.074 93.5308 31.4766 93.9335C31.8792 94.3361 31.8792 94.9889 31.4761 95.3916L26.1862 100.679C25.9849 100.88 25.7211 100.98 25.4574 100.98Z" fill="#000072"/>
<path d="M15.949 83.967C15.4825 83.967 15.0599 83.6483 14.9475 83.1743C14.8156 82.6203 15.1583 82.0648 15.7118 81.933L22.9908 80.2041C23.5447 80.0727 24.1002 80.4149 24.2321 80.9689C24.3635 81.5229 24.0213 82.0783 23.4673 82.2102L16.1888 83.939C16.1084 83.958 16.0285 83.967 15.949 83.967Z" fill="#000072"/>
<path d="M23.4983 68.1227C23.4069 68.1227 23.314 68.1102 23.2215 68.0847L16.014 66.0801C15.466 65.9273 15.1448 65.3588 15.2971 64.8104C15.4495 64.2619 16.0189 63.9407 16.5669 64.0935L23.7745 66.0981C24.3225 66.251 24.6437 66.8189 24.4913 67.3674C24.3645 67.824 23.9498 68.1227 23.4983 68.1227Z" fill="#000072"/>
<path d="M30.7473 55.7106C30.4841 55.7106 30.2203 55.6102 30.019 55.4089L24.7286 50.1214C24.326 49.7193 24.326 49.0665 24.7286 48.6638C25.1307 48.2612 25.7836 48.2607 26.1862 48.6633L31.4761 53.9508C31.8792 54.3534 31.8792 55.0058 31.4766 55.4084C31.2753 55.6097 31.0116 55.7106 30.7473 55.7106Z" fill="#000072"/>
<path d="M43.1919 48.458C42.7399 48.458 42.3253 48.1588 42.1989 47.7023L40.2003 40.4967C40.0479 39.9482 40.3696 39.3797 40.9181 39.2279C41.4676 39.075 42.035 39.3972 42.1869 39.9457L44.1855 47.1513C44.3378 47.6998 44.0161 48.2682 43.4677 48.4201C43.3757 48.4456 43.2828 48.458 43.1919 48.458Z" fill="#000072"/>
<path d="M57.7349 48.3062C57.6505 48.3062 57.5651 48.2957 57.4797 48.2737C56.9282 48.1328 56.595 47.5719 56.7354 47.0199L58.5831 39.7744C58.724 39.2229 59.286 38.8892 59.8365 39.0301C60.3884 39.171 60.7216 39.7319 60.5807 40.2839L58.733 47.5294C58.6146 47.996 58.195 48.3062 57.7349 48.3062Z" fill="#000072"/>
<path d="M21.5017 75.8793C20.9352 75.8793 20.4746 75.4217 20.4712 74.8542C20.4677 74.2853 20.9262 73.8207 21.4957 73.8172L58.9043 73.5905H58.9108C59.4773 73.5905 59.9383 74.048 59.9413 74.6155C59.9453 75.1844 59.4863 75.649 58.9173 75.6525L21.5082 75.8793H21.5017Z" fill="#000072"/>
<path d="M56.0091 76.5736C56.115 76.2804 56.1964 75.9781 56.2519 75.6684L58.9173 75.6524C59.4548 75.649 59.8934 75.2348 59.9378 74.7093C60.1786 74.8967 60.3339 75.1884 60.3359 75.5171C60.3394 76.086 59.8809 76.5501 59.3114 76.5536L56.0091 76.5736Z" fill="#A6A6CE"/>
<path d="M51.3641 77.3144C50.9749 77.3144 50.5858 77.1665 50.2891 76.8703L50.2861 76.8678L50.0279 76.6101L47.809 76.6235C47.6222 76.3443 47.4778 76.0411 47.3789 75.7224L49.6337 75.7084L49.892 75.9657L49.8945 75.9682C50.1917 76.2649 50.5808 76.4128 50.97 76.4128C51.3601 76.4128 51.7502 76.2639 52.0474 75.9657L52.3207 75.6924L54.1319 75.6814C54.037 76.0016 53.8962 76.3064 53.7128 76.5876L52.7148 76.5936L52.4415 76.8678C52.1443 77.1655 51.7542 77.3144 51.3641 77.3144Z" fill="#8385B0"/>
<path d="M47.0202 76.6285L46.0726 75.7304L47.3789 75.7224C47.4778 76.0411 47.6221 76.3443 47.809 76.6235L47.0202 76.6285ZM53.7128 76.5876C53.8961 76.3063 54.037 76.0016 54.1319 75.6815L56.2518 75.6685C56.1964 75.9782 56.115 76.2804 56.0091 76.5736L53.7128 76.5876Z" fill="#000072"/>
<path d="M50.9699 76.4128C50.5808 76.4128 50.1917 76.2649 49.8945 75.9682L49.892 75.9657L49.6337 75.7085L52.3206 75.6925L52.0474 75.9657C51.7502 76.2639 51.3601 76.4128 50.9699 76.4128Z" fill="#000072"/>
<path d="M21.9029 76.7809H21.8964C21.3299 76.7809 20.8689 76.3233 20.8654 75.7564C20.8654 75.7244 20.8664 75.6929 20.8689 75.662C21.0437 75.7978 21.2635 75.8792 21.5017 75.8792H21.5082L34.3864 75.8008L35.2975 76.6995L21.9029 76.7809ZM56.136 73.1663C56.0461 72.8422 55.9272 72.5279 55.7798 72.2262L57.3908 70.6128L58.1011 71.1977L56.136 73.1663ZM45.695 72.2747L43.5491 70.1063L36.8036 63.3527C36.5413 63.09 36.3969 62.7538 36.3705 62.4106C36.3835 62.4241 36.396 62.4376 36.4094 62.4511L43.1545 69.2046L45.8659 71.9445C45.8049 72.0529 45.748 72.1628 45.695 72.2747Z" fill="#A6A6CE"/>
<path d="M47.3664 73.6604C47.3824 73.6069 47.3994 73.5535 47.4183 73.5006L47.5777 73.6594L47.3664 73.6604Z" fill="#8385B0"/>
<path d="M47.0702 73.6623L46.9059 73.4985L45.695 72.2747C45.748 72.1628 45.8049 72.0529 45.8658 71.9446L46.5117 72.5969L47.4184 73.5005C47.3994 73.5534 47.3824 73.6069 47.3664 73.6603L47.0702 73.6623ZM54.3912 73.6179L55.7799 72.2263C55.9272 72.528 56.0461 72.8422 56.136 73.1663L55.6934 73.6099L54.3912 73.6179Z" fill="#000072"/>
<path d="M47.5777 73.6594L47.4184 73.5006L46.5118 72.5969L45.8659 71.9446L43.1545 69.2047L36.4095 62.4511C36.396 62.4376 36.3835 62.4241 36.3705 62.4106C36.3385 61.9905 36.4834 61.559 36.8056 61.2378C37.0978 60.946 37.4809 60.7997 37.8636 60.7997C38.2457 60.7997 38.6278 60.9455 38.9195 61.2378L45.6766 67.9793L49.0708 71.3346L51.3671 73.636L55.7519 69.2636L57.3908 70.6128L55.7799 72.2263L54.3912 73.618L47.5777 73.6594Z" fill="#000072"/>
<path d="M62.9 66.3904L62.1891 65.8054L68.7044 59.2787C69.0256 58.958 69.17 58.5284 69.138 58.1093C69.682 58.6963 69.67 59.6104 69.0986 60.1803L62.9 66.3904Z" fill="#A6A6CE"/>
<path d="M62.1892 65.8054L60.5627 64.4662L66.9826 58.0653C67.2743 57.7741 67.657 57.6288 68.0391 57.6288C68.4227 57.6288 68.8064 57.7751 69.0986 58.0678C69.1121 58.0813 69.1251 58.0953 69.1381 58.1093C69.17 58.5284 69.0257 58.958 68.7045 59.2787L62.1892 65.8054Z" fill="#000072"/>
<path d="M21.5082 75.8793H21.5017C21.2635 75.8793 21.0437 75.7978 20.8688 75.662C20.9133 75.1365 21.3524 74.7229 21.8904 74.7194L33.2195 74.6509L34.3864 75.8008L21.5082 75.8793ZM46.0727 75.7304L44.8588 74.58L47.9723 74.5615L47.0702 73.6624L47.3664 73.6604L47.5777 73.6594L54.3912 73.6179L55.6934 73.6099L54.7853 74.5201L59.2985 74.4926H59.305C59.5438 74.4926 59.763 74.5735 59.9379 74.7094C59.8934 75.2349 59.4548 75.649 58.9173 75.6525L56.2519 75.6685L54.1319 75.6814L52.3207 75.6924L49.6337 75.7084L47.3789 75.7224L46.0727 75.7304Z" fill="#000072"/>
<path d="M79.2104 88.5746L58.1011 71.1978L62.9 66.3904L80.7749 81.1048L78.4421 80.5223C78.3582 80.5018 78.2743 80.4913 78.1913 80.4913C77.7293 80.4913 77.3092 80.8045 77.1923 81.2731C77.0544 81.8256 77.3906 82.385 77.9431 82.5229L81.1385 83.3206C80.6415 85.1314 79.9941 86.8872 79.2104 88.5746Z" fill="white"/>
<path d="M81.3169 90.3089L79.2104 88.5746C79.9941 86.8872 80.6415 85.1314 81.1385 83.3206L83.807 83.987C83.1841 86.1919 82.3464 88.3068 81.3169 90.3089Z" fill="#D5D5E7"/>
<path d="M81.4162 90.3908L81.3168 90.3089C82.3463 88.3068 83.184 86.1919 83.8069 83.987L83.9233 84.016C83.2959 86.2393 82.4537 88.3733 81.4162 90.3908Z" fill="#7373B2"/>
<path d="M55.0406 68.6782L31.119 48.986C32.9078 47.453 34.8554 46.1148 36.9295 45.0114L59.8515 63.8808L55.0406 68.6782Z" fill="white"/>
<path d="M31.119 48.986L29.5435 47.6888C31.4047 46.2242 33.4218 44.9469 35.5637 43.8869L36.9294 45.0113C34.8554 46.1148 32.9078 47.453 31.119 48.986Z" fill="#D5D5E7"/>
<path d="M29.5435 47.6888L29.4406 47.6039C31.3023 46.1373 33.3274 44.873 35.4703 43.81L35.5637 43.8869C33.4218 44.9469 31.4047 46.2242 29.5435 47.6888Z" fill="#7373B2"/>
<path d="M55.7518 69.2636L55.0405 68.6781L59.8514 63.8807L60.5628 64.4662L55.7518 69.2636Z" fill="#7373B2"/>
<path d="M83.9234 84.0159L83.807 83.987L81.1386 83.3206L77.9431 82.5229C77.3907 82.385 77.0545 81.8256 77.1924 81.2731C77.3092 80.8046 77.7293 80.4914 78.1914 80.4914C78.2743 80.4914 78.3582 80.5018 78.4422 80.5223L80.7749 81.1048L83.9958 83.7562C83.9718 83.8431 83.9479 83.9295 83.9234 84.0159Z" fill="#7373B2"/>
<path d="M58.1011 71.1977L57.3908 70.6128L62.1892 65.8054L62.9 66.3904L58.1011 71.1977Z" fill="#CECEE4"/>
<path d="M57.3908 70.6128L55.7518 69.2636L60.5627 64.4662L62.1891 65.8054L57.3908 70.6128Z" fill="#7373B2"/>
<path d="M63.5824 104.58L35.2975 76.6995L45.5127 76.6375C45.7889 77.3743 46.2225 78.0497 46.796 78.6231C47.8859 79.7121 49.3176 80.2571 50.7492 80.2571C50.7827 80.2571 50.8156 80.2566 50.8491 80.2561L71.1536 99.4941C68.8833 101.537 66.3363 103.261 63.5824 104.58Z" fill="white"/>
<path d="M64.9461 105.924L63.5824 104.58C66.3363 103.261 68.8833 101.537 71.1537 99.4941L72.7511 101.008C70.3959 102.976 67.7724 104.637 64.9461 105.924Z" fill="#D5D5E7"/>
<path d="M65.0415 106.018L64.946 105.925C67.7723 104.637 70.3958 102.976 72.751 101.008L72.8499 101.102C70.4947 103.071 67.8687 104.727 65.0415 106.018Z" fill="#7373B2"/>
<path d="M50.7492 80.257C49.3175 80.257 47.8859 79.7121 46.796 78.6231C46.2225 78.0497 45.7889 77.3743 45.5127 76.6375L47.0203 76.6285L50.8491 80.256C50.8156 80.2565 50.7826 80.257 50.7492 80.257Z" fill="#7373B2"/>
<path d="M32.3074 73.7518L21.3494 62.9506C22.303 60.426 23.5503 58.0263 25.0473 55.8095L43.9103 73.6813L32.3074 73.7518Z" fill="white"/>
<path d="M21.3493 62.9507L19.2848 60.9156C20.3503 58.4904 21.6885 56.2111 23.2605 54.1161L25.0473 55.8095C23.5502 58.0264 22.3029 60.4261 21.3493 62.9507Z" fill="#D5D5E7"/>
<path d="M19.2848 60.9156L19.1864 60.8182C20.2534 58.394 21.5881 56.1137 23.1591 54.0202L23.2605 54.1161C21.6885 56.2111 20.3503 58.4904 19.2848 60.9156Z" fill="#7373B2"/>
<path d="M33.2194 74.6509L32.3073 73.7518L43.9102 73.6814L44.8588 74.58L33.2194 74.6509Z" fill="#7373B2"/>
<path d="M35.2975 76.6995L34.3864 75.8008L45.2589 75.7354C45.3183 76.0441 45.4028 76.3453 45.5127 76.6375L35.2975 76.6995Z" fill="#CECEE4"/>
<path d="M45.5127 76.6375C45.4028 76.3453 45.3184 76.0441 45.259 75.7354L46.0727 75.7304L47.0203 76.6285L45.5127 76.6375Z" fill="#7373B2"/>
<path d="M34.3864 75.8008L33.2195 74.6509L44.8588 74.58L46.0726 75.7304L45.2589 75.7354L34.3864 75.8008Z" fill="#7373B2"/>
<path d="M53.6928 16.3993H48.6426C51.1612 16.1125 52.4855 14.8917 53.1368 13.9761H53.9426V16.1495C53.9426 16.2874 53.8302 16.3993 53.6928 16.3993Z" fill="#AC8B30"/>
<path d="M53.9426 13.9761H53.1369C53.3042 13.7413 53.4271 13.5265 53.5145 13.3522H53.6929C53.8302 13.3522 53.9426 13.4646 53.9426 13.6019V13.9761Z" fill="#B0A393"/>
<path d="M54.6399 16.7714C54.3942 16.5406 54.0635 16.3993 53.6993 16.3993H48.6427H53.6928C53.8302 16.3993 53.9426 16.2874 53.9426 16.1495V13.9761V13.6019C53.9426 13.4646 53.8302 13.3522 53.6928 13.3522H53.5145C53.6484 13.0864 53.6993 12.9166 53.6993 12.9166L54.6399 13.9761V16.7714ZM46.777 16.6915L46.5032 16.4182C46.753 16.4392 46.9933 16.4517 47.2265 16.4577C47.0612 16.5077 46.9093 16.5876 46.777 16.6915Z" fill="#000072"/>
<path d="M54.6399 17.1671H47.2525L46.777 16.6915C46.9094 16.5876 47.0612 16.5077 47.2265 16.4577C47.3225 16.4602 47.4169 16.4612 47.5103 16.4612C47.9124 16.4612 48.289 16.4398 48.6427 16.3993H53.6993C54.0635 16.3993 54.3942 16.5407 54.6399 16.7714V17.1671Z" fill="#000072"/>
<path d="M8.66098 37.4356L8.46716 37.2393C11.8494 33.9489 12.0947 30.3779 11.9823 28.697L12.1566 28.5251L14.8461 31.252C14.852 31.2575 14.865 31.271 14.865 31.2975C14.8645 31.324 14.8515 31.3369 14.8456 31.3429V31.3424L11.1801 34.954L9.42674 36.6813C9.42524 36.6828 9.42375 36.6843 9.42225 36.6858L8.66098 37.4356Z" fill="#AC8B30"/>
<path d="M8.36779 37.6984C8.3513 37.6984 8.33482 37.6924 8.32233 37.6794L8.16748 37.5225C8.27038 37.4281 8.36979 37.3342 8.46719 37.2393L8.66101 37.4356L8.41325 37.6799C8.40076 37.6924 8.38427 37.6984 8.36779 37.6984ZM11.9823 28.697C11.9728 28.5551 11.9608 28.4267 11.9478 28.3128L12.1566 28.5251L11.9823 28.697Z" fill="#B0A393"/>
<path d="M7.93375 38.8712L7.40875 38.1734C7.6765 37.9586 7.92975 37.7413 8.16753 37.5225L8.32238 37.6794C8.33487 37.6924 8.35135 37.6984 8.36783 37.6984C8.38432 37.6984 8.4008 37.6924 8.41329 37.6799L8.66105 37.4356L9.42232 36.6858C9.1331 36.973 8.96876 37.3637 8.96576 37.7713C8.96526 37.8307 8.96826 37.8897 8.97475 37.9476L7.93375 38.8712ZM11.1801 34.954L14.8456 31.3424V31.3429C14.8516 31.3369 14.8646 31.324 14.8651 31.2975C14.8651 31.271 14.8521 31.2575 14.8461 31.252L12.1567 28.5251L11.9479 28.3128C11.9044 27.9322 11.8515 27.7174 11.8515 27.7174L15.9076 29.2739L15.6578 32.0198L15.528 32.1352C15.3117 32.0278 15.0754 31.9738 14.8391 31.9738C14.447 31.9738 14.0549 32.1222 13.7537 32.4184L11.1801 34.954Z" fill="#000072"/>
<path d="M8.97468 37.9476C8.96819 37.8897 8.96519 37.8307 8.96569 37.7713C8.96869 37.3637 9.13303 36.9731 9.42225 36.6858C9.42375 36.6843 9.42525 36.6828 9.42675 36.6813L11.1801 34.954L13.7536 32.4184C14.0548 32.1222 14.4469 31.9738 14.8391 31.9738C15.0753 31.9738 15.3116 32.0278 15.5279 32.1352L8.97468 37.9476Z" fill="#000072"/>
<path d="M92.5357 37.3772C92.5192 37.3772 92.5027 37.3707 92.4907 37.3587L86.5339 31.4903L86.6813 31.341C90.2903 33.942 93.3494 34.3885 94.9898 34.397L95.249 34.6528L92.5816 37.3577C92.5686 37.3707 92.5521 37.3772 92.5357 37.3772Z" fill="#AC8B30"/>
<path d="M95.249 34.6528L94.9898 34.397C95.0063 34.3975 95.0228 34.3975 95.0387 34.3975C95.2146 34.3975 95.3729 34.3925 95.5138 34.3845L95.249 34.6528ZM86.5339 31.4903L86.0578 31.0213C86.0523 31.0153 86.0388 31.0023 86.0388 30.9758C86.0383 30.9493 86.0513 30.9358 86.0573 30.9303L86.0888 30.8979C86.2876 31.0522 86.4854 31.2001 86.6812 31.341L86.5339 31.4903Z" fill="#B0A393"/>
<path d="M91.8503 38.7683L91.5626 38.4706C91.8063 38.1879 91.9402 37.8257 91.9377 37.4501C91.9347 37.04 91.7689 36.6473 91.4767 36.3596L87.1498 32.0972C86.8486 31.8005 86.457 31.6521 86.0649 31.6521C85.7702 31.6521 85.4754 31.7361 85.2197 31.9034L85.0913 31.7705L85.4659 30.3973C85.6752 30.5717 85.8825 30.7385 86.0888 30.8979L86.0574 30.9303C86.0514 30.9358 86.0384 30.9493 86.0389 30.9758C86.0389 31.0022 86.0524 31.0152 86.0579 31.0212L86.5339 31.4903L92.4907 37.3587C92.5027 37.3707 92.5191 37.3771 92.5356 37.3771C92.5521 37.3771 92.5686 37.3707 92.5816 37.3577L95.249 34.6528L95.5138 34.3845C96.0068 34.357 96.278 34.2956 96.278 34.2956L94.8389 37.2708L91.8503 38.7683Z" fill="#000072"/>
<path d="M91.5626 38.4706L85.2196 31.9034C85.4754 31.736 85.7701 31.6521 86.0648 31.6521C86.4569 31.6521 86.8486 31.8005 87.1498 32.0972L91.4766 36.3596C91.7689 36.6473 91.9347 37.04 91.9377 37.4501C91.9402 37.8257 91.8063 38.1879 91.5626 38.4706Z" fill="#000072"/>
</svg>
